<mxfile modified="2023-06-23T09:23:04.318Z" host="app.diagrams.net" agent="Mozilla/5.0 (Windows NT 10.0; Win64; x64) AppleWebKit/537.36 (KHTML, like Gecko) Chrome/114.0.0.0 Safari/537.36" etag="31Wd71cQyeO-m2dc7-6i" version="21.5.0" type="github">
  <diagram id="Ht1M8jgEwFfnCIfOTk4-" name="Page-1">
    <mxGraphModel dx="1909" dy="998" grid="1" gridSize="10" guides="1" tooltips="1" connect="1" arrows="1" fold="1" page="1" pageScale="1" pageWidth="1169" pageHeight="827" math="0" shadow="0">
      <root>
        <mxCell id="0" />
        <mxCell id="1" parent="0" />
        <mxCell id="MyhktlDQTb_3K6pOky0R-7" value="" style="rounded=1;whiteSpace=wrap;html=1;" vertex="1" parent="1">
          <mxGeometry x="80" y="190" width="500" height="620" as="geometry" />
        </mxCell>
        <mxCell id="MyhktlDQTb_3K6pOky0R-4" value="" style="rounded=1;whiteSpace=wrap;html=1;fillColor=#cdeb8b;strokeColor=#36393d;" vertex="1" parent="1">
          <mxGeometry x="100" y="260" width="460" height="530" as="geometry" />
        </mxCell>
        <mxCell id="MyhktlDQTb_3K6pOky0R-8" value="&lt;font style=&quot;font-size: 19px;&quot;&gt;Homologation&amp;nbsp;Environnement&amp;nbsp;&lt;/font&gt;" style="rounded=1;whiteSpace=wrap;html=1;fillColor=#f8cecc;strokeColor=#b85450;" vertex="1" parent="1">
          <mxGeometry x="140" y="270" width="380" height="40" as="geometry" />
        </mxCell>
        <mxCell id="MyhktlDQTb_3K6pOky0R-10" value="&lt;font style=&quot;font-size: 19px;&quot;&gt;Network : ITEC_DEV&lt;/font&gt;" style="rounded=1;whiteSpace=wrap;html=1;fillColor=#f8cecc;strokeColor=#b85450;" vertex="1" parent="1">
          <mxGeometry x="140" y="200" width="380" height="40" as="geometry" />
        </mxCell>
        <mxCell id="MyhktlDQTb_3K6pOky0R-11" value="" style="image;aspect=fixed;perimeter=ellipsePerimeter;html=1;align=center;shadow=0;dashed=0;spacingTop=3;image=img/lib/active_directory/web_server.svg;" vertex="1" parent="1">
          <mxGeometry x="160.9" y="620" width="90" height="112.5" as="geometry" />
        </mxCell>
        <mxCell id="MyhktlDQTb_3K6pOky0R-12" value="&lt;font style=&quot;font-size: 14px;&quot;&gt;CentOS 7&amp;nbsp; NGINX&lt;/font&gt;" style="rounded=1;whiteSpace=wrap;html=1;glass=0;" vertex="1" parent="1">
          <mxGeometry x="151" y="580" width="90" height="40" as="geometry" />
        </mxCell>
        <mxCell id="MyhktlDQTb_3K6pOky0R-13" value="" style="sketch=0;aspect=fixed;pointerEvents=1;shadow=0;dashed=0;html=1;strokeColor=none;labelPosition=center;verticalLabelPosition=bottom;verticalAlign=top;align=center;fillColor=#00188D;shape=mxgraph.mscae.enterprise.windows_server" vertex="1" parent="1">
          <mxGeometry x="170.8" y="370" width="70.2" height="90" as="geometry" />
        </mxCell>
        <mxCell id="MyhktlDQTb_3K6pOky0R-14" value="batch commun" style="html=1;shadow=0;dashed=0;shape=mxgraph.bootstrap.rrect;rSize=5;strokeColor=none;strokeWidth=1;fillColor=#6C767D;fontColor=#FFFFFF;whiteSpace=wrap;align=center;verticalAlign=middle;spacingLeft=0;fontStyle=1;fontSize=14;spacing=5;" vertex="1" parent="1">
          <mxGeometry x="146.4" y="330" width="119" height="20" as="geometry" />
        </mxCell>
        <mxCell id="MyhktlDQTb_3K6pOky0R-15" value="NDoD" style="html=1;shadow=0;dashed=0;shape=mxgraph.bootstrap.rrect;rSize=5;strokeColor=none;strokeWidth=1;fillColor=#6C767D;fontColor=#FFFFFF;whiteSpace=wrap;align=center;verticalAlign=middle;spacingLeft=0;fontStyle=1;fontSize=14;spacing=5;" vertex="1" parent="1">
          <mxGeometry x="79.99999999999997" y="470" width="80" height="20" as="geometry" />
        </mxCell>
        <mxCell id="MyhktlDQTb_3K6pOky0R-16" value="RWA" style="html=1;shadow=0;dashed=0;shape=mxgraph.bootstrap.rrect;rSize=5;strokeColor=none;strokeWidth=1;fillColor=#6C767D;fontColor=#FFFFFF;whiteSpace=wrap;align=center;verticalAlign=middle;spacingLeft=0;fontStyle=1;fontSize=14;spacing=5;" vertex="1" parent="1">
          <mxGeometry x="79.99999999999997" y="384" width="80" height="20" as="geometry" />
        </mxCell>
        <mxCell id="MyhktlDQTb_3K6pOky0R-17" value="MCG SAFIR" style="html=1;shadow=0;dashed=0;shape=mxgraph.bootstrap.rrect;rSize=5;strokeColor=none;strokeWidth=1;fillColor=#6C767D;fontColor=#FFFFFF;whiteSpace=wrap;align=center;verticalAlign=middle;spacingLeft=0;fontStyle=1;fontSize=14;spacing=5;" vertex="1" parent="1">
          <mxGeometry x="260" y="393.5" width="140" height="20" as="geometry" />
        </mxCell>
        <mxCell id="MyhktlDQTb_3K6pOky0R-18" value="Tranche SAFIR" style="html=1;shadow=0;dashed=0;shape=mxgraph.bootstrap.rrect;rSize=5;strokeColor=none;strokeWidth=1;fillColor=#6C767D;fontColor=#FFFFFF;whiteSpace=wrap;align=center;verticalAlign=middle;spacingLeft=0;fontStyle=1;fontSize=14;spacing=5;" vertex="1" parent="1">
          <mxGeometry x="250.9" y="470" width="140" height="20" as="geometry" />
        </mxCell>
        <mxCell id="MyhktlDQTb_3K6pOky0R-19" value="ECL" style="html=1;shadow=0;dashed=0;shape=mxgraph.bootstrap.rrect;rSize=5;strokeColor=none;strokeWidth=1;fillColor=#6C767D;fontColor=#FFFFFF;whiteSpace=wrap;align=center;verticalAlign=middle;spacingLeft=0;fontStyle=1;fontSize=14;spacing=5;" vertex="1" parent="1">
          <mxGeometry x="151" y="500" width="100" height="20" as="geometry" />
        </mxCell>
        <mxCell id="MyhktlDQTb_3K6pOky0R-20" value="" style="shape=image;html=1;verticalAlign=top;verticalLabelPosition=bottom;labelBackgroundColor=#ffffff;imageAspect=0;aspect=fixed;image=https://cdn4.iconfinder.com/data/icons/aiga-symbol-signs/444/aiga_information-128.png" vertex="1" parent="1">
          <mxGeometry x="410" y="420" width="58" height="58" as="geometry" />
        </mxCell>
        <mxCell id="MyhktlDQTb_3K6pOky0R-21" value="" style="image;aspect=fixed;perimeter=ellipsePerimeter;html=1;align=center;shadow=0;dashed=0;spacingTop=3;image=img/lib/active_directory/web_server.svg;" vertex="1" parent="1">
          <mxGeometry x="480" y="414" width="56" height="70" as="geometry" />
        </mxCell>
        <mxCell id="MyhktlDQTb_3K6pOky0R-25" value="" style="rounded=1;whiteSpace=wrap;html=1;fillColor=#dae8fc;strokeColor=#6c8ebf;" vertex="1" parent="1">
          <mxGeometry x="840" y="630" width="460" height="190" as="geometry" />
        </mxCell>
        <mxCell id="MyhktlDQTb_3K6pOky0R-22" value="&lt;font style=&quot;font-size: 27px;&quot;&gt;DB2&lt;/font&gt;" style="strokeWidth=2;html=1;shape=mxgraph.flowchart.database;whiteSpace=wrap;" vertex="1" parent="1">
          <mxGeometry x="1020" y="700" width="110" height="100" as="geometry" />
        </mxCell>
        <mxCell id="MyhktlDQTb_3K6pOky0R-24" value="" style="edgeStyle=entityRelationEdgeStyle;fontSize=12;html=1;endArrow=ERmandOne;startArrow=ERmandOne;rounded=0;exitX=0;exitY=0.5;exitDx=0;exitDy=0;exitPerimeter=0;entryX=1;entryY=1;entryDx=0;entryDy=0;entryPerimeter=0;" edge="1" parent="1" source="MyhktlDQTb_3K6pOky0R-22" target="MyhktlDQTb_3K6pOky0R-13">
          <mxGeometry width="100" height="100" relative="1" as="geometry">
            <mxPoint x="810" y="720" as="sourcePoint" />
            <mxPoint x="850" y="420" as="targetPoint" />
            <Array as="points">
              <mxPoint x="890" y="590" />
              <mxPoint x="890" y="520" />
            </Array>
          </mxGeometry>
        </mxCell>
        <mxCell id="MyhktlDQTb_3K6pOky0R-26" value="&lt;font style=&quot;font-size: 19px;&quot;&gt;AS 400&amp;nbsp;&lt;/font&gt;" style="rounded=1;whiteSpace=wrap;html=1;fillColor=#f8cecc;strokeColor=#b85450;" vertex="1" parent="1">
          <mxGeometry x="880" y="640" width="380" height="40" as="geometry" />
        </mxCell>
        <mxCell id="MyhktlDQTb_3K6pOky0R-27" value="" style="outlineConnect=0;dashed=0;verticalLabelPosition=bottom;verticalAlign=top;align=center;html=1;shape=mxgraph.aws3.classic_load_balancer;fillColor=#47F53B;gradientColor=none;rotation=90;" vertex="1" parent="1">
          <mxGeometry x="550" y="280" width="89" height="112" as="geometry" />
        </mxCell>
        <mxCell id="MyhktlDQTb_3K6pOky0R-30" value="SLB" style="html=1;shadow=0;dashed=0;shape=mxgraph.bootstrap.rrect;rSize=5;strokeColor=none;strokeWidth=1;fillColor=#407D29;fontColor=#FFFFFF;whiteSpace=wrap;align=center;verticalAlign=middle;spacingLeft=0;fontStyle=1;fontSize=14;spacing=5;" vertex="1" parent="1">
          <mxGeometry x="550" y="270" width="100" height="20" as="geometry" />
        </mxCell>
        <mxCell id="MyhktlDQTb_3K6pOky0R-31" value="" style="endArrow=classic;html=1;rounded=0;exitX=0.855;exitY=0.855;exitDx=0;exitDy=0;exitPerimeter=0;" edge="1" parent="1" source="MyhktlDQTb_3K6pOky0R-27" target="MyhktlDQTb_3K6pOky0R-11">
          <mxGeometry width="50" height="50" relative="1" as="geometry">
            <mxPoint x="750" y="428.5" as="sourcePoint" />
            <mxPoint x="800" y="378.5" as="targetPoint" />
          </mxGeometry>
        </mxCell>
        <mxCell id="MyhktlDQTb_3K6pOky0R-32" value="" style="endArrow=classic;html=1;rounded=0;exitX=0.5;exitY=1;exitDx=0;exitDy=0;exitPerimeter=0;entryX=0.997;entryY=0.194;entryDx=0;entryDy=0;entryPerimeter=0;" edge="1" parent="1" source="MyhktlDQTb_3K6pOky0R-27" target="MyhktlDQTb_3K6pOky0R-13">
          <mxGeometry width="50" height="50" relative="1" as="geometry">
            <mxPoint x="563" y="330" as="sourcePoint" />
            <mxPoint x="251" y="606" as="targetPoint" />
          </mxGeometry>
        </mxCell>
      </root>
    </mxGraphModel>
  </diagram>
</mxfile>
